<?xml version="1.0" encoding="utf-8"?>
<!-- Generator: Adobe Illustrator 18.0.0, SVG Export Plug-In . SVG Version: 6.00 Build 0)  -->
<!DOCTYPE svg PUBLIC "-//W3C//DTD SVG 1.1//EN" "http://www.w3.org/Graphics/SVG/1.1/DTD/svg11.dtd">
<svg version="1.1" xmlns="http://www.w3.org/2000/svg" xmlns:xlink="http://www.w3.org/1999/xlink" x="0px" y="0px"
	 viewBox="0 0 30 30" enable-background="new 0 0 30 30" xml:space="preserve">
<g id="Background_xA0_Image_1_">
</g>
<g id="Row_1_1_">
	<g id="watch">
		<g>
			<path fill-rule="evenodd" clip-rule="evenodd" fill="#FFFFFF" d="M21,8.3V6c0-1.7-1.3-3-3-3h-6c-1.7,0-3,1.3-3,3v2.3
				c-1.8,1.6-3,4-3,6.7c0,2.7,1.2,5.1,3,6.7V24c0,1.7,1.3,3,3,3h6c1.7,0,3-1.3,3-3v-2.3c1.8-1.6,3-4,3-6.7C24,12.3,22.8,9.9,21,8.3z
				 M11,6c0-0.6,0.4-1,1-1h6c0.6,0,1,0.4,1,1v0.9C17.8,6.3,16.4,6,15,6s-2.8,0.3-4,0.9V6z M19,24c0,0.6-0.4,1-1,1h-6
				c-0.6,0-1-0.4-1-1v-0.9c1.2,0.6,2.6,0.9,4,0.9s2.8-0.3,4-0.9V24z M15,22c-3.9,0-7-3.1-7-7c0-3.9,3.1-7,7-7s7,3.1,7,7
				C22,18.9,18.9,22,15,22z M16,14.6V11c0-0.6-0.4-1-1-1s-1,0.4-1,1v4c0,0.3,0.1,0.5,0.3,0.7l2,2c0.2,0.2,0.5,0.3,0.7,0.3
				s0.5-0.1,0.7-0.3c0.4-0.4,0.4-1,0-1.4L16,14.6z"/>
		</g>
	</g>
</g>
</svg>
